# xmcd CD database file
#
# Track frame offsets:
#	150
#	39033
#	76810
#	111189
#	145635
#	174956
#	203064
#
# Disc length: 3188 seconds
#
# Revision: 0
# Processed by: cddbd v1.5.2PL0 Copyright (c) Steve Scherf et al.
# Submitted via: CDex 1.51
#
DISCID=480c7207
DTITLE=Ken Peplowski - All This... - Live In The U.K., Volume 1
DYEAR=2003
DGENRE=Jazz
TTITLE0=Can't We Be Friends
TTITLE1=Sonny Side
TTITLE2=All This And Heaven Too
TTITLE3=I'm Walkin' (Piano Trio)
TTITLE4=(Now And Then There's) A Fool Such As I
TTITLE5=Sucrier Velours
TTITLE6=Lady's In Love With You
EXTD=YEAR: 2003
EXTT0=
EXTT1=
EXTT2=
EXTT3=
EXTT4=
EXTT5=
EXTT6=
PLAYORDER=
